<svg width="45" height="45" viewBox="0 0 45 45" fill="none" xmlns="http://www.w3.org/2000/svg">
<path d="M30.1235 16.8652C30.6726 16.316 30.6726 15.4257 30.1235 14.8765C29.5743 14.3273 28.6839 14.3273 28.1347 14.8765L22.5 20.5112L16.8652 14.8765C16.3161 14.3273 15.4257 14.3273 14.8765 14.8765C14.3273 15.4257 14.3273 16.316 14.8765 16.8652L20.5112 22.5L14.8765 28.1347C14.3273 28.6839 14.3273 29.5743 14.8765 30.1235C15.4257 30.6726 16.316 30.6726 16.8652 30.1235L22.5 24.4887L28.1347 30.1235C28.6839 30.6726 29.5743 30.6726 30.1235 30.1235C30.6727 29.5743 30.6727 28.6839 30.1235 28.1347L24.4887 22.5L30.1235 16.8652Z" fill="black"/>
</svg>
