<svg width="570" height="424" viewBox="0 0 570 424" fill="none" xmlns="http://www.w3.org/2000/svg">
<g filter="url(#filter0_d_1342_103)">
<rect x="4" width="562" height="416" rx="16" fill="white"/>
<ellipse cx="211.397" cy="204.207" rx="23.3449" ry="23.4483" transform="rotate(-180 211.397 204.207)" fill="#F1F1F1"/>
<path d="M221.442 204.914C221.833 204.523 221.833 203.89 221.442 203.5L215.078 197.136C214.688 196.745 214.055 196.745 213.664 197.136C213.274 197.526 213.274 198.159 213.664 198.55L219.321 204.207L213.664 209.864C213.274 210.254 213.274 210.887 213.664 211.278C214.055 211.668 214.688 211.668 215.078 211.278L221.442 204.914ZM203.227 205.207H220.735V203.207H203.227V205.207Z" fill="black"/>
<ellipse cx="158.871" cy="204.207" rx="23.4483" ry="23.3449" transform="rotate(-90 158.871 204.207)" fill="#F1F1F1"/>
<path d="M158.164 214.293C158.555 214.684 159.188 214.684 159.578 214.293L165.942 207.929C166.333 207.539 166.333 206.906 165.942 206.515C165.552 206.125 164.918 206.125 164.528 206.515L158.871 212.172L153.214 206.515C152.824 206.125 152.191 206.125 151.8 206.515C151.41 206.906 151.41 207.539 151.8 207.929L158.164 214.293ZM157.871 196L157.871 213.586L159.871 213.586L159.871 196L157.871 196Z" fill="black"/>
<ellipse cx="106.345" cy="204.207" rx="23.3449" ry="23.4483" fill="#F1F1F1"/>
<path d="M96.2999 203.5C95.9093 203.89 95.9093 204.523 96.2999 204.914L102.664 211.278C103.054 211.669 103.688 211.669 104.078 211.278C104.469 210.887 104.469 210.254 104.078 209.864L98.4212 204.207L104.078 198.55C104.469 198.16 104.469 197.526 104.078 197.136C103.688 196.745 103.054 196.745 102.664 197.136L96.2999 203.5ZM114.516 203.207L97.007 203.207L97.007 205.207L114.516 205.207L114.516 203.207Z" fill="black"/>
<ellipse cx="158.871" cy="151.448" rx="23.4483" ry="23.3449" transform="rotate(90 158.871 151.448)" fill="#F1F1F1"/>
<path d="M159.578 141.362C159.188 140.971 158.555 140.971 158.164 141.362L151.8 147.726C151.41 148.116 151.41 148.75 151.8 149.14C152.191 149.531 152.824 149.531 153.214 149.14L158.871 143.483L164.528 149.14C164.918 149.531 165.552 149.531 165.942 149.14C166.333 148.75 166.333 148.116 165.942 147.726L159.578 141.362ZM159.871 159.655L159.871 142.069L157.871 142.069L157.871 159.655L159.871 159.655Z" fill="black"/>
<path d="M166.25 332.597C166.25 344.165 157.578 353.443 147 353.443C136.422 353.443 127.75 344.165 127.75 332.597C127.75 321.028 136.422 311.75 147 311.75C157.578 311.75 166.25 321.028 166.25 332.597Z" fill="#F2F2F2" stroke="#DDDDDD" stroke-width="1.5"/>
<path d="M144.904 326.618V324.538H149.064V339.118H146.764V326.618H144.904Z" fill="black"/>
<path d="M236.25 332.597C236.25 344.165 227.578 353.443 217 353.443C206.422 353.443 197.75 344.165 197.75 332.597C197.75 321.028 206.422 311.75 217 311.75C227.578 311.75 236.25 321.028 236.25 332.597Z" fill="#F2F2F2" stroke="#DDDDDD" stroke-width="1.5"/>
<path d="M213.689 336.018C214.969 334.911 215.975 334.004 216.709 333.298C217.455 332.578 218.075 331.831 218.569 331.058C219.062 330.284 219.309 329.511 219.309 328.738C219.309 327.938 219.115 327.311 218.729 326.858C218.355 326.404 217.762 326.178 216.949 326.178C216.162 326.178 215.549 326.431 215.109 326.938C214.682 327.431 214.455 328.098 214.429 328.938H212.229C212.269 327.418 212.722 326.258 213.589 325.458C214.469 324.644 215.582 324.238 216.929 324.238C218.382 324.238 219.515 324.638 220.329 325.438C221.155 326.238 221.569 327.304 221.569 328.638C221.569 329.598 221.322 330.524 220.829 331.418C220.349 332.298 219.769 333.091 219.089 333.798C218.422 334.491 217.569 335.298 216.529 336.218L215.629 337.018H221.969V338.918H212.249V337.258L213.689 336.018Z" fill="black"/>
<path d="M306.25 332.597C306.25 344.165 297.578 353.443 287 353.443C276.422 353.443 267.75 344.165 267.75 332.597C267.75 321.028 276.422 311.75 287 311.75C297.578 311.75 306.25 321.028 306.25 332.597Z" fill="#F2F2F2" stroke="#DDDDDD" stroke-width="1.5"/>
<path d="M282.223 328.138C282.303 326.898 282.776 325.931 283.643 325.238C284.523 324.544 285.643 324.198 287.003 324.198C287.936 324.198 288.743 324.364 289.423 324.698C290.103 325.031 290.616 325.484 290.963 326.058C291.309 326.631 291.483 327.278 291.483 327.998C291.483 328.824 291.263 329.531 290.823 330.118C290.383 330.704 289.856 331.098 289.243 331.298V331.378C290.029 331.618 290.643 332.058 291.083 332.698C291.523 333.324 291.743 334.131 291.743 335.118C291.743 335.904 291.563 336.604 291.203 337.218C290.843 337.831 290.309 338.318 289.603 338.678C288.896 339.024 288.049 339.198 287.063 339.198C285.623 339.198 284.436 338.831 283.503 338.098C282.583 337.351 282.089 336.284 282.023 334.898H284.223C284.276 335.604 284.549 336.184 285.043 336.638C285.536 337.078 286.203 337.298 287.043 337.298C287.856 337.298 288.483 337.078 288.923 336.638C289.363 336.184 289.583 335.604 289.583 334.898C289.583 333.964 289.283 333.304 288.683 332.918C288.096 332.518 287.189 332.318 285.963 332.318H285.443V330.438H285.983C287.063 330.424 287.883 330.244 288.443 329.898C289.016 329.551 289.303 329.004 289.303 328.258C289.303 327.618 289.096 327.111 288.683 326.738C288.269 326.351 287.683 326.158 286.923 326.158C286.176 326.158 285.596 326.351 285.183 326.738C284.769 327.111 284.523 327.578 284.443 328.138H282.223Z" fill="black"/>
<path d="M376.25 332.597C376.25 344.165 367.578 353.443 357 353.443C346.422 353.443 337.75 344.165 337.75 332.597C337.75 321.028 346.422 311.75 357 311.75C367.578 311.75 376.25 321.028 376.25 332.597Z" fill="#F2F2F2" stroke="#DDDDDD" stroke-width="1.5"/>
<path d="M351.945 336.078V334.358L358.665 324.718H361.425V334.098H363.285V336.078H361.425V339.118H359.185V336.078H351.945ZM359.285 327.038L354.565 334.098H359.285V327.038Z" fill="black"/>
<path d="M446.25 332.597C446.25 344.165 437.578 353.443 427 353.443C416.422 353.443 407.75 344.165 407.75 332.597C407.75 321.028 416.422 311.75 427 311.75C437.578 311.75 446.25 321.028 446.25 332.597Z" fill="#F2F2F2" stroke="#DDDDDD" stroke-width="1.5"/>
<path d="M431.713 326.498H425.013V330.478C425.293 330.104 425.707 329.791 426.253 329.538C426.813 329.284 427.407 329.158 428.033 329.158C429.153 329.158 430.06 329.398 430.753 329.878C431.46 330.358 431.96 330.964 432.253 331.698C432.56 332.431 432.713 333.204 432.713 334.018C432.713 335.004 432.52 335.884 432.133 336.658C431.76 337.418 431.193 338.018 430.433 338.458C429.687 338.898 428.767 339.118 427.673 339.118C426.22 339.118 425.053 338.758 424.173 338.038C423.293 337.318 422.767 336.364 422.593 335.178H424.813C424.96 335.804 425.287 336.304 425.793 336.678C426.3 337.038 426.933 337.218 427.693 337.218C428.64 337.218 429.347 336.931 429.813 336.358C430.293 335.784 430.533 335.024 430.533 334.078C430.533 333.118 430.293 332.384 429.813 331.878C429.333 331.358 428.627 331.098 427.693 331.098C427.04 331.098 426.487 331.264 426.033 331.598C425.593 331.918 425.273 332.358 425.073 332.918H422.913V324.498H431.713V326.498Z" fill="black"/>
<path d="M433.466 154.448C433.466 166.987 423.347 177.147 410.871 177.147C398.395 177.147 388.276 166.987 388.276 154.448C388.276 141.909 398.395 131.75 410.871 131.75C423.347 131.75 433.466 141.909 433.466 154.448Z" fill="#F1F1F1" stroke="#DDDDDD" stroke-width="1.5"/>
<path d="M419.503 149.221L416.083 160.241H413.683L411.463 152.101L409.243 160.241H406.843L403.403 149.221H405.723L408.023 158.081L410.363 149.221H412.743L414.983 158.041L417.263 149.221H419.503Z" fill="black"/>
<path d="M433.466 207.207C433.466 219.746 423.347 229.905 410.871 229.905C398.395 229.905 388.276 219.746 388.276 207.207C388.276 194.668 398.395 184.509 410.871 184.509C423.347 184.509 433.466 194.668 433.466 207.207Z" fill="#F1F1F1" stroke="#DDDDDD" stroke-width="1.5"/>
<path d="M411.613 213.18C410.746 213.18 409.966 213.027 409.273 212.72C408.593 212.4 408.053 211.973 407.653 211.44C407.253 210.893 407.04 210.287 407.013 209.62H409.373C409.413 210.087 409.633 210.48 410.033 210.8C410.446 211.107 410.96 211.26 411.573 211.26C412.213 211.26 412.706 211.14 413.053 210.9C413.413 210.647 413.593 210.327 413.593 209.94C413.593 209.527 413.393 209.22 412.993 209.02C412.606 208.82 411.986 208.6 411.133 208.36C410.306 208.133 409.633 207.913 409.113 207.7C408.593 207.487 408.14 207.16 407.753 206.72C407.38 206.28 407.193 205.7 407.193 204.98C407.193 204.393 407.366 203.86 407.713 203.38C408.06 202.887 408.553 202.5 409.193 202.22C409.846 201.94 410.593 201.8 411.433 201.8C412.686 201.8 413.693 202.12 414.453 202.76C415.226 203.387 415.64 204.247 415.693 205.34H413.413C413.373 204.847 413.173 204.453 412.813 204.16C412.453 203.867 411.966 203.72 411.353 203.72C410.753 203.72 410.293 203.833 409.973 204.06C409.653 204.287 409.493 204.587 409.493 204.96C409.493 205.253 409.6 205.5 409.813 205.7C410.026 205.9 410.286 206.06 410.593 206.18C410.9 206.287 411.353 206.427 411.953 206.6C412.753 206.813 413.406 207.033 413.913 207.26C414.433 207.473 414.88 207.793 415.253 208.22C415.626 208.647 415.82 209.213 415.833 209.92C415.833 210.547 415.66 211.107 415.313 211.6C414.966 212.093 414.473 212.48 413.833 212.76C413.206 213.04 412.466 213.18 411.613 213.18Z" fill="black"/>
<path d="M485.992 207.207C485.992 219.746 475.873 229.905 463.397 229.905C450.921 229.905 440.802 219.746 440.802 207.207C440.802 194.668 450.921 184.509 463.397 184.509C475.873 184.509 485.992 194.668 485.992 207.207Z" fill="#F1F1F1" stroke="#DDDDDD" stroke-width="1.5"/>
<path d="M457.36 207.44C457.36 206.333 457.587 205.353 458.04 204.5C458.507 203.647 459.133 202.987 459.92 202.52C460.72 202.04 461.607 201.8 462.58 201.8C463.3 201.8 464.007 201.96 464.7 202.28C465.407 202.587 465.967 203 466.38 203.52V198.2H468.68V213H466.38V211.34C466.007 211.873 465.487 212.313 464.82 212.66C464.167 213.007 463.413 213.18 462.56 213.18C461.6 213.18 460.72 212.94 459.92 212.46C459.133 211.967 458.507 211.287 458.04 210.42C457.587 209.54 457.36 208.547 457.36 207.44ZM466.38 207.48C466.38 206.72 466.22 206.06 465.9 205.5C465.593 204.94 465.187 204.513 464.68 204.22C464.173 203.927 463.627 203.78 463.04 203.78C462.453 203.78 461.907 203.927 461.4 204.22C460.893 204.5 460.48 204.92 460.16 205.48C459.853 206.027 459.7 206.68 459.7 207.44C459.7 208.2 459.853 208.867 460.16 209.44C460.48 210.013 460.893 210.453 461.4 210.76C461.92 211.053 462.467 211.2 463.04 211.2C463.627 211.2 464.173 211.053 464.68 210.76C465.187 210.467 465.593 210.04 465.9 209.48C466.22 208.907 466.38 208.24 466.38 207.48Z" fill="black"/>
<path d="M380.94 207.207C380.94 219.746 370.821 229.905 358.345 229.905C345.869 229.905 335.75 219.746 335.75 207.207C335.75 194.668 345.869 184.509 358.345 184.509C370.821 184.509 380.94 194.668 380.94 207.207Z" fill="#F1F1F1" stroke="#DDDDDD" stroke-width="1.5"/>
<path d="M352.308 207.44C352.308 206.333 352.534 205.353 352.988 204.5C353.454 203.647 354.081 202.987 354.868 202.52C355.668 202.04 356.548 201.8 357.508 201.8C358.374 201.8 359.128 201.973 359.768 202.32C360.421 202.653 360.941 203.073 361.328 203.58V201.98H363.628V213H361.328V211.36C360.941 211.88 360.414 212.313 359.748 212.66C359.081 213.007 358.321 213.18 357.468 213.18C356.521 213.18 355.654 212.94 354.868 212.46C354.081 211.967 353.454 211.287 352.988 210.42C352.534 209.54 352.308 208.547 352.308 207.44ZM361.328 207.48C361.328 206.72 361.168 206.06 360.848 205.5C360.541 204.94 360.134 204.513 359.628 204.22C359.121 203.927 358.574 203.78 357.988 203.78C357.401 203.78 356.854 203.927 356.348 204.22C355.841 204.5 355.428 204.92 355.108 205.48C354.801 206.027 354.648 206.68 354.648 207.44C354.648 208.2 354.801 208.867 355.108 209.44C355.428 210.013 355.841 210.453 356.348 210.76C356.868 211.053 357.414 211.2 357.988 211.2C358.574 211.2 359.121 211.053 359.628 210.76C360.134 210.467 360.541 210.04 360.848 209.48C361.168 208.907 361.328 208.24 361.328 207.48Z" fill="black"/>
</g>
<path d="M256.48 46.168H235.888V43.696H244.72V39.256H247.72V43.696H256.48V46.168ZM248.752 34.912C249.76 35.472 250.792 36 251.848 36.496C252.904 36.976 254.136 37.456 255.544 37.936L253.648 40.168C252.336 39.688 251.104 39.152 249.952 38.56C248.816 37.952 247.712 37.28 246.64 36.544C245.488 37.344 244.248 38.064 242.92 38.704C241.592 39.328 240.224 39.896 238.816 40.408L237.016 38.2C238.44 37.752 239.784 37.24 241.048 36.664C242.312 36.072 243.44 35.472 244.432 34.864C245.44 34.24 246.28 33.632 246.952 33.04C247.624 32.448 248.088 31.92 248.344 31.456C247.88 31.488 247.232 31.504 246.4 31.504C245.568 31.504 244.704 31.504 243.808 31.504H239.2V28.984H245.776C246.8 28.984 247.872 28.984 248.992 28.984C250.112 28.984 251.368 28.968 252.76 28.936C252.44 30.088 251.936 31.16 251.248 32.152C250.56 33.128 249.728 34.048 248.752 34.912ZM278.142 34.768H274.806V40.24H271.854V27.136H274.806V32.272H278.142V34.768ZM271.854 49.456V43.648H260.478V41.2H274.806V49.456H271.854ZM258.462 28.12H262.11C263.182 28.12 264.254 28.12 265.326 28.12C266.414 28.12 267.502 28.104 268.59 28.072C268.462 29.272 268.222 30.368 267.87 31.36C267.518 32.336 267.062 33.248 266.502 34.096C267.19 34.864 267.966 35.56 268.83 36.184C269.71 36.808 270.582 37.312 271.446 37.696L269.718 39.808C268.822 39.36 267.974 38.824 267.174 38.2C266.39 37.56 265.646 36.832 264.942 36.016C264.126 36.88 263.198 37.656 262.158 38.344C261.118 39.016 259.998 39.648 258.798 40.24L256.95 38.128C258.182 37.6 259.278 37.016 260.238 36.376C261.214 35.736 262.038 35.08 262.71 34.408C263.398 33.736 263.942 33.072 264.342 32.416C264.742 31.76 264.99 31.144 265.086 30.568C264.414 30.6 263.75 30.616 263.094 30.616C262.438 30.616 261.774 30.616 261.102 30.616H258.462V28.12ZM278.613 42.76C280.117 42.04 281.405 41.248 282.477 40.384C283.565 39.504 284.469 38.584 285.189 37.624C285.909 36.648 286.461 35.64 286.845 34.6C287.245 33.56 287.509 32.52 287.637 31.48C285.861 31.528 284.085 31.552 282.309 31.552H279.765V29.008H283.581C284.717 29.008 285.869 29.008 287.037 29.008C288.221 29.008 289.493 28.992 290.853 28.96C290.741 30.688 290.477 32.312 290.061 33.832C289.645 35.352 289.029 36.776 288.213 38.104C287.397 39.416 286.365 40.632 285.117 41.752C283.869 42.872 282.365 43.904 280.605 44.848L278.613 42.76ZM299.733 37.984H296.253V49.384H293.277V27.136H296.253V35.44H299.733V37.984ZM315.635 27.136H318.611V49.384H315.635V27.136ZM312.515 36.448C312.515 37.744 312.371 38.896 312.083 39.904C311.811 40.896 311.419 41.736 310.907 42.424C310.395 43.112 309.779 43.632 309.059 43.984C308.355 44.336 307.563 44.512 306.683 44.512C305.803 44.512 305.003 44.336 304.283 43.984C303.579 43.632 302.971 43.112 302.459 42.424C301.947 41.736 301.547 40.896 301.259 39.904C300.987 38.896 300.851 37.744 300.851 36.448C300.851 35.152 300.987 34.008 301.259 33.016C301.547 32.008 301.947 31.16 302.459 30.472C302.971 29.784 303.579 29.264 304.283 28.912C305.003 28.56 305.803 28.384 306.683 28.384C307.563 28.384 308.355 28.56 309.059 28.912C309.779 29.264 310.395 29.784 310.907 30.472C311.419 31.16 311.811 32.008 312.083 33.016C312.371 34.008 312.515 35.152 312.515 36.448ZM309.491 36.448C309.491 34.72 309.243 33.368 308.747 32.392C308.267 31.416 307.579 30.928 306.683 30.928C305.787 30.928 305.091 31.416 304.595 32.392C304.115 33.368 303.875 34.72 303.875 36.448C303.875 38.176 304.115 39.528 304.595 40.504C305.091 41.48 305.787 41.968 306.683 41.968C307.579 41.968 308.267 41.48 308.747 40.504C309.243 39.528 309.491 38.176 309.491 36.448ZM324.794 39.976V29.008H338.906V31.528H327.77V37.384H339.098V39.976H324.794ZM342.074 43.696V46.168H321.482V43.696H342.074Z" fill="black"/>
<path d="M141.597 374.076V382.068H142.593V374.076H141.597ZM142.281 377.376V378.204H144.201V377.376H142.281ZM135.837 383.88V384.696H143.085V383.88H135.837ZM135.837 381.252V384.204H136.833V381.252H135.837ZM137.205 374.844C135.585 374.844 134.373 375.96 134.373 377.52C134.373 379.092 135.585 380.196 137.205 380.196C138.825 380.196 140.037 379.092 140.037 377.52C140.037 375.96 138.825 374.844 137.205 374.844ZM137.205 375.72C138.261 375.72 139.065 376.464 139.065 377.52C139.065 378.588 138.261 379.32 137.205 379.32C136.149 379.32 135.345 378.588 135.345 377.52C135.345 376.464 136.149 375.72 137.205 375.72ZM145.628 374.736V379.416H146.612V374.736H145.628ZM145.628 379.176V380.004H146.444C148.4 380.004 149.744 379.932 151.304 379.608L151.172 378.804C149.672 379.116 148.352 379.176 146.444 379.176H145.628ZM152.9 374.088V380.736H153.896V374.088H152.9ZM149.864 375.36V376.14H153.176V375.36H149.864ZM149.864 377.268V378.06H153.176V377.268H149.864ZM150.332 380.832C148.088 380.832 146.708 381.588 146.708 382.884C146.708 384.18 148.088 384.924 150.332 384.924C152.564 384.924 153.944 384.18 153.944 382.884C153.944 381.588 152.564 380.832 150.332 380.832ZM150.332 381.624C151.964 381.624 152.96 382.092 152.96 382.884C152.96 383.676 151.964 384.132 150.332 384.132C148.7 384.132 147.704 383.676 147.704 382.884C147.704 382.092 148.7 381.624 150.332 381.624Z" fill="black"/>
<path d="M206.161 379.32V380.148H206.845C208.453 380.148 209.557 380.088 210.877 379.824L210.793 379.008C209.497 379.272 208.417 379.32 206.845 379.32H206.161ZM206.161 375.132V379.572H207.133V375.936H210.265V375.132H206.161ZM213.865 374.088V382.152H214.813V374.088H213.865ZM212.113 377.184V378.012H214.165V377.184H212.113ZM211.477 374.292V381.816H212.413V374.292H211.477ZM207.745 383.88V384.696H215.149V383.88H207.745ZM207.745 381.192V384.288H208.741V381.192H207.745ZM220.824 374.832V375.66C220.824 377.508 218.784 379.164 216.876 379.524L217.32 380.352C219.492 379.86 221.688 378.024 221.688 375.66V374.832H220.824ZM221.004 374.832V375.66C221.004 378.036 223.212 379.86 225.372 380.352L225.816 379.524C223.92 379.164 221.868 377.52 221.868 375.66V374.832H221.004ZM216.48 382.656V383.472H226.308V382.656H216.48Z" fill="black"/>
<path d="M285.077 374.088V384.936H286.073V374.088H285.077ZM281.897 375.252V375.42C281.897 378.3 280.445 380.604 277.313 382.116L277.841 382.92C281.465 381.144 282.881 378.396 282.881 375.252H281.897ZM277.805 375.252V376.068H282.329V375.252H277.805ZM288.868 374.34V378.48H292.468V374.34H291.52V375.588H289.828V374.34H288.868ZM289.828 376.368H291.52V377.664H289.828V376.368ZM293.296 374.34V378.48H296.884V374.34H295.936V375.588H294.244V374.34H293.296ZM294.244 376.368H295.936V377.664H294.244V376.368ZM287.968 379.488V380.304H297.772V379.488H287.968ZM289.168 381.372V384.792H296.572V381.372H289.168ZM295.6 382.176V383.988H290.14V382.176H295.6Z" fill="black"/>
<path d="M351.697 374.868C350.005 374.868 348.781 375.912 348.781 377.424C348.781 378.948 350.005 379.992 351.697 379.992C353.389 379.992 354.601 378.948 354.601 377.424C354.601 375.912 353.389 374.868 351.697 374.868ZM351.697 375.732C352.813 375.732 353.629 376.416 353.629 377.424C353.629 378.432 352.813 379.128 351.697 379.128C350.569 379.128 349.753 378.432 349.753 377.424C349.753 376.416 350.569 375.732 351.697 375.732ZM356.017 374.076V384.948H357.013V374.076H356.017ZM348.373 382.572C350.305 382.572 352.957 382.56 355.393 382.092L355.309 381.36C352.945 381.732 350.209 381.744 348.229 381.744L348.373 382.572ZM358.968 379.632V380.448H368.796V379.632H358.968ZM363.456 380.136V382.632H364.452V380.136H363.456ZM360.228 374.592V378.408H367.524V374.592H360.228ZM366.54 375.396V377.604H361.2V375.396H366.54ZM360.216 383.88V384.696H367.704V383.88H360.216ZM360.216 381.588V384.168H361.2V381.588H360.216Z" fill="black"/>
<path d="M417.965 375.384V376.02C417.965 377.496 416.837 378.78 415.229 379.296L415.721 380.076C417.533 379.476 418.781 377.928 418.781 376.02V375.384H417.965ZM418.145 375.384V376.02C418.145 377.832 419.357 379.32 421.157 379.896L421.625 379.116C420.041 378.624 418.961 377.4 418.961 376.02V375.384H418.145ZM415.553 375.084V375.912H421.361V375.084H415.553ZM417.965 379.62V382.14H418.961V379.62H417.965ZM423.221 378.588V379.428H425.225V378.588H423.221ZM422.513 374.088V384.936H423.509V374.088H422.513ZM415.181 382.668C417.053 382.68 419.597 382.668 421.913 382.26L421.829 381.516C419.597 381.84 416.957 381.84 415.049 381.84L415.181 382.668ZM431.764 376.5V377.316H434.56V376.5H431.764ZM428.716 375.012V375.732C428.716 377.124 427.6 378.492 426.016 379.032L426.496 379.812C428.308 379.2 429.532 377.556 429.532 375.732V375.012H428.716ZM428.908 375.012V375.744C428.908 377.472 430.084 378.984 431.86 379.56L432.34 378.78C430.78 378.288 429.724 377.04 429.724 375.744V375.012H428.908ZM426.316 374.64V375.456H432.112V374.64H426.316ZM433.9 374.088V379.68H434.896V374.088H433.9ZM427.912 380.232V381.024H433.912V382.092H427.936V384.516H428.908V382.836H434.896V380.232H427.912ZM427.936 384.024V384.816H435.292V384.024H427.936Z" fill="black"/>
<path d="M276.771 101.916V118.638H279.183V101.916H276.771ZM270.201 103.086C267.681 103.086 265.827 105.39 265.827 109.026C265.827 112.698 267.681 115.002 270.201 115.002C272.721 115.002 274.575 112.698 274.575 109.026C274.575 105.39 272.721 103.086 270.201 103.086ZM270.201 105.264C271.443 105.264 272.271 106.578 272.271 109.026C272.271 111.51 271.443 112.842 270.201 112.842C268.959 112.842 268.113 111.51 268.113 109.026C268.113 106.578 268.959 105.264 270.201 105.264ZM281.558 109.764V111.672H296.642V109.764H281.558ZM287.912 107.262V110.502H290.288V107.262H287.912ZM283.376 106.506V108.396H294.932V106.506H283.376ZM283.376 102.654V107.712H285.752V104.526H294.842V102.654H283.376ZM289.046 112.5C285.446 112.5 283.25 113.598 283.25 115.56C283.25 117.522 285.446 118.62 289.046 118.62C292.646 118.62 294.824 117.522 294.824 115.56C294.824 113.598 292.646 112.5 289.046 112.5ZM289.046 114.3C291.278 114.3 292.412 114.714 292.412 115.56C292.412 116.424 291.278 116.802 289.046 116.802C286.814 116.802 285.68 116.424 285.68 115.56C285.68 114.714 286.814 114.3 289.046 114.3Z" fill="black"/>
<path d="M244.788 264.104C242.592 264.104 241.188 266.39 241.188 270.152C241.188 273.932 242.592 276.218 244.788 276.218C247.002 276.218 248.424 273.932 248.424 270.152C248.424 266.39 247.002 264.104 244.788 264.104ZM244.788 266.354C245.706 266.354 246.228 267.614 246.228 270.152C246.228 272.708 245.706 273.95 244.788 273.95C243.888 273.95 243.366 272.708 243.366 270.152C243.366 267.614 243.888 266.354 244.788 266.354ZM253.086 262.934V279.602H255.372V262.934H253.086ZM251.088 269.288V271.214H253.842V269.288H251.088ZM249.432 263.186V278.846H251.682V263.186H249.432ZM268.78 262.934V279.602H271.174V262.934H268.78ZM258.124 264.518V274.868H260.5V264.518H258.124ZM258.124 273.464V275.498H259.6C262.138 275.498 264.892 275.318 267.754 274.724L267.484 272.744C264.73 273.284 262.03 273.464 259.6 273.464H258.124ZM273.909 264.644V275.444H280.497V264.644H273.909ZM278.265 266.516V273.572H276.141V266.516H278.265ZM285.483 262.934V279.602H287.769V262.934H285.483ZM279.291 268.982V270.908H283.035V268.982H279.291ZM282.081 263.186V278.846H284.331V263.186H282.081ZM301.069 262.916V279.638H303.481V262.916H301.069ZM294.499 264.086C291.979 264.086 290.125 266.39 290.125 270.026C290.125 273.698 291.979 276.002 294.499 276.002C297.019 276.002 298.873 273.698 298.873 270.026C298.873 266.39 297.019 264.086 294.499 264.086ZM294.499 266.264C295.741 266.264 296.569 267.578 296.569 270.026C296.569 272.51 295.741 273.842 294.499 273.842C293.257 273.842 292.411 272.51 292.411 270.026C292.411 267.578 293.257 266.264 294.499 266.264ZM314.64 265.094V267.02H317.952V265.094H314.64ZM314.64 268.316V270.224H317.952V268.316H314.64ZM309.654 263.888V265.796C309.654 268.226 308.502 270.566 305.748 271.538L307.026 273.41C310.176 272.24 311.58 269.252 311.58 265.796V263.888H309.654ZM310.158 263.888V265.796C310.158 269.108 311.526 272.042 314.478 273.212L315.792 271.358C313.164 270.368 312.084 268.082 312.084 265.796V263.888H310.158ZM317.394 262.952V275.282H319.788V262.952H317.394ZM308.754 277.406V279.314H320.148V277.406H308.754ZM308.754 274.148V278.612H311.166V274.148H308.754Z" fill="black"/>
<defs>
<filter id="filter0_d_1342_103" x="0" y="0" width="570" height="424" filterUnits="userSpaceOnUse" color-interpolation-filters="sRGB">
<feFlood flood-opacity="0" result="BackgroundImageFix"/>
<feColorMatrix in="SourceAlpha" type="matrix" values="0 0 0 0 0 0 0 0 0 0 0 0 0 0 0 0 0 0 127 0" result="hardAlpha"/>
<feOffset dy="4"/>
<feGaussianBlur stdDeviation="2"/>
<feComposite in2="hardAlpha" operator="out"/>
<feColorMatrix type="matrix" values="0 0 0 0 0 0 0 0 0 0 0 0 0 0 0 0 0 0 0.25 0"/>
<feBlend mode="normal" in2="BackgroundImageFix" result="effect1_dropShadow_1342_103"/>
<feBlend mode="normal" in="SourceGraphic" in2="effect1_dropShadow_1342_103" result="shape"/>
</filter>
</defs>
</svg>
